<svg width="152" height="52" xmlns="http://www.w3.org/2000/svg"><g fill="#000" fill-rule="evenodd"><path d="M106.36 31.45v7.66c0 1.13 0 2.27.11 3.39 0 .44-.07.56-.51.48a7.64 7.64 0 0 0-2-.09c-1.23.11-1.25.1-1.18-1.08.47-8.11.34-16.22.15-24.33 0-.78.1-1.07 1-.83a3.71 3.71 0 0 0 1.87 0c.49-.12.66 0 .62.54-.05.73 0 1.47 0 2.37a6.54 6.54 0 0 1 4-3 7.63 7.63 0 0 1 9.14 4.91 10.94 10.94 0 0 1-.29 8.28 7.69 7.69 0 0 1-9.59 4.2c-1.3-.43-1.83-.83-3.32-2.5Zm10.11-6.05a10.22 10.22 0 0 0-.84-4.5 4.52 4.52 0 0 0-3.09-2.68 4.89 4.89 0 0 0-5.78 3.49 12.63 12.63 0 0 0-.13 7.08 4.94 4.94 0 0 0 4.76 3.73c2.26 0 3.86-1.22 4.61-3.58.34-1.148.5-2.343.47-3.54ZM20 33.75c-.12-.37.1-.59.21-.84 3.51-7.74 7-15.47 10.24-23.35.11-.27.17-.71.61-.51.44.2 1.16-.44 1.5.46 3.1 8.09 6.66 16 10.2 23.88a2 2 0 0 1 .1.4 10.19 10.19 0 0 0-3.85 0c-.62.11-.55-.41-.65-.71a67.63 67.63 0 0 0-3-7.81 1 1 0 0 0-1.11-.73c-2.453.04-4.903.04-7.35 0a1 1 0 0 0-1.11.72A55.63 55.63 0 0 0 23 33c-.17.63-.39.83-1 .64a4.8 4.8 0 0 0-2 .11Zm6.88-11h6.78c.63 0 .58-.21.38-.65-.72-1.61-1.4-3.23-2.1-4.84L30.47 14l-3.54 8.39c-.03.06-.04.16-.09.35l.04.01ZM89.45 16.36c4.5 0 7.61 2.15 8.72 5.94a9.49 9.49 0 0 1-3.12 10.27 10.63 10.63 0 0 1-11.4.15 7.22 7.22 0 0 1-2.86-4 11.34 11.34 0 0 1-.15-6.06c1.01-4 4.28-6.33 8.81-6.3Zm5.48 8.93a10.68 10.68 0 0 0-.77-4.29 5.11 5.11 0 0 0-9.45 0 11.5 11.5 0 0 0 .05 8.74 4.62 4.62 0 0 0 4.4 3.15A4.93 4.93 0 0 0 93.9 30a9.68 9.68 0 0 0 1.03-4.71ZM54.87 25.2h-5.56c-.59 0-.75.16-.71.74.023.814.137 1.622.34 2.41a5.34 5.34 0 0 0 4 4.06 6.62 6.62 0 0 0 6.54-1.95c.24-.25.37-.84.8-.63.43.21 0 .66 0 1 .21 1.08-.48 1.63-1.28 2.06a10.25 10.25 0 0 1-10 .21 7.18 7.18 0 0 1-3.68-5.1c-.4-1.72-.4-3.51 0-5.23 1-4.46 4.69-6.9 9.4-6.3 4.34.55 6.93 3.83 6.56 8.26 0 .53-.31.51-.68.5l-5.73-.03Zm-1.69-1.5h2.26c2.6 0 2.7-.14 2-2.71a3.81 3.81 0 0 0-3.33-3.13 4.26 4.26 0 0 0-4.54 2.32 10.25 10.25 0 0 0-.88 2.82c-.11.55 0 .79.63.76 1.29-.1 2.58-.06 3.86-.06ZM71.08 16.36a9.51 9.51 0 0 1 4.29.9c.38.18.5.34.34.78a19.55 19.55 0 0 0-.47 2c0 .18 0 .41-.25.45-.25.04-.32-.22-.41-.41A3.82 3.82 0 0 0 69.5 18a2.54 2.54 0 0 0-.86 4.34A5.68 5.68 0 0 0 71 23.53c.78.22 1.57.42 2.35.67 1.75.57 3.13 1.53 3.37 3.52a5.34 5.34 0 0 1-2.1 5.28A7.32 7.32 0 0 1 70 34.29a10.13 10.13 0 0 1-4.55-1.06c-.47-.23-.77-.43-.45-1a7.26 7.26 0 0 0 .45-1.63c.06-.23 0-.56.33-.62.33-.06.35.29.46.49a4.8 4.8 0 0 0 5.84 2.18 2.65 2.65 0 0 0 2-2.49 2.32 2.32 0 0 0-1.66-2.56c-1.21-.52-2.47-.9-3.71-1.36a4.81 4.81 0 0 1-3.43-3.44c-.72-3.23 1.46-6 5-6.35.29-.08.64-.08.8-.09ZM53.74 12h4.06c.4 0 .8-.1.79.57-.01.67-.36.54-.75.54h-8.38c-.45 0-.67-.06-.68-.6-.01-.54.35-.52.72-.52l4.24.01Z" fill-rule="nonzero"/><text font-family="Helvetica" font-size="13.21" transform="translate(19 9)">
                        <tspan x="103.54" y="29.77">®</tspan>
                    </text></g></svg>