<svg width="152" height="52" xmlns="http://www.w3.org/2000/svg"><g fill="#000" fill-rule="nonzero"><path d="M50 28.477v-5.06c0-.305.086-.412.406-.406 1.629.025 3.26-.065 4.892.046 1.059.072 2.023.422 2.658 1.324.808 1.153.431 2.89-.77 3.703-.09.061-.253.08-.238.23.016.15.179.14.28.179 1.177.509 1.803 1.395 1.77 2.519-.034 1.2-.766 2.174-1.975 2.634a5.337 5.337 0 0 1-1.896.346c-1.57.008-3.14 0-4.71.008-.312 0-.416-.084-.413-.398.003-1.706-.003-3.416-.004-5.125Zm3.145 4.559c.527 0 1.054.012 1.583 0 .707-.021 1.412-.066 2.06-.39 1.303-.648 1.487-2.333.333-3.112a3.153 3.153 0 0 0-1.475-.503c-1.42-.14-2.846-.048-4.269-.077-.263 0-.32.123-.318.348 0 1.135.009 2.269 0 3.403 0 .274.12.34.368.336.569-.02 1.143-.014 1.718-.005Zm0-5.06H54.8a3.164 3.164 0 0 0 1.477-.376c1.044-.562 1.333-1.968.559-2.83-.498-.563-1.2-.722-1.92-.737-1.172-.029-2.347 0-3.52-.01-.245 0-.339.08-.337.327.008 1.1.008 2.2 0 3.3 0 .27.113.338.367.332.566-.026 1.142-.018 1.716-.02l.004.013ZM73.008 27.97c0-1.836.007-3.674-.008-5.51 0-.36.104-.46.42-.46 1.458.017 2.917-.008 4.373.014.923.014 1.803.234 2.572.84 1.743 1.378 1.61 4.334-.252 5.501-.359.24-.754.409-1.167.498-.288.05-.333.153-.148.416 1.027 1.447 2.051 2.898 3.073 4.353.053.075.165.133.117.255-.047.123-.182.066-.28.088-.711.153-1.143-.203-1.549-.827-.84-1.286-1.75-2.511-2.623-3.766a.477.477 0 0 0-.447-.227c-.874.008-1.75.01-2.624 0-.265 0-.396.048-.392.4.017 1.338-.01 2.676 0 4.014 0 .324-.097.422-.384.413-.713-.024-.686.117-.685-.732.007-1.75.004-3.51.004-5.27Zm1.064-2.418c0 .689.014 1.378 0 2.065-.012.358.11.46.428.46 1.062-.019 2.124-.016 3.185 0a3.63 3.63 0 0 0 1.401-.287c.582-.22 1.052-.7 1.292-1.32.24-.62.23-1.323-.031-1.933-.357-.851-1.052-1.216-1.842-1.335-1.38-.207-2.772-.05-4.159-.09-.214 0-.273.125-.27.342.001.695-.004 1.397-.004 2.098ZM87.01 28.488c0-1.687.01-3.374-.008-5.06 0-.335.108-.422.44-.41 1.494.043 2.995-.112 4.478.082 2.118.281 3.774 1.278 4.608 3.21 1.324 3.056-.178 6.675-3.98 7.517a7.486 7.486 0 0 1-1.6.173c-1.177 0-2.354-.011-3.53 0-.32 0-.42-.079-.418-.392.015-1.71 0-3.418 0-5.127l.01.007Zm1.077.03c0 1.368.012 2.737-.009 4.106 0 .337.115.422.441.408.93-.031 1.861.015 2.795-.036 3.222-.177 5.11-2.739 4.387-5.596-.463-1.827-1.784-2.905-3.712-3.27-1.163-.22-2.346-.057-3.518-.108-.315-.012-.391.103-.39.387.013 1.369.006 2.738.006 4.108ZM110.003 28.466c0-1.687.007-3.375 0-5.062 0-.306.085-.405.398-.404 2.386.011 4.772.011 7.159 0 .298 0 .386.097.378.388-.018.68.06.623-.63.623h-5.819c-.329 0-.451.077-.443.422.024 1.007.009 2.015.009 3.022 0 .49 0 .49.478.49h5.254c.424 0 .404 0 .424.587.011.318-.083.422-.424.422-1.774-.015-3.55 0-5.326-.011-.323 0-.423.09-.423.422a86.172 86.172 0 0 1 0 3.196c0 .352.087.466.45.463 2.023-.015 4.044 0 6.07-.015.336 0 .486.08.43.421a.7.7 0 0 0 0 .211c.035.272-.066.36-.353.359a713.73 713.73 0 0 0-7.23 0c-.313 0-.408-.096-.405-.405.013-1.709 0-3.419 0-5.129h.003ZM128.013 22.006a4.973 4.973 0 0 1 3.447 1.227c.232.191.264.317.075.56-.438.558-.417.548-.973.138-1.187-.868-2.48-1.163-3.86-.654-1.028.378-1.478 1.394-1.164 2.476.162.56.572.856 1.03 1.088.646.324 1.34.473 2.031.63.707.14 1.39.393 2.028.747 1.01.598 1.432 1.513 1.366 2.745-.06 1.13-.582 1.925-1.452 2.466-.87.541-1.853.635-2.853.537-1.341-.133-2.483-.731-3.504-1.644-.214-.19-.254-.33-.051-.571.464-.545.46-.565.972-.087 1.151 1.075 2.491 1.426 3.975 1.221.918-.127 1.693-.832 1.836-1.636.198-1.112-.22-1.844-1.266-2.278-.816-.336-1.68-.458-2.515-.705a7.597 7.597 0 0 1-1.415-.608c-1.711-.915-1.797-3.784-.082-4.972a3.763 3.763 0 0 1 2.375-.68ZM103.994 28.54c0 1.689 0 3.378.006 5.066 0 .314-.083.406-.362.393-.704-.032-.636.103-.636-.693v-9.85c0-.456 0-.456.426-.455.661 0 .562-.053.563.614.003 1.641.003 3.283.003 4.925ZM65.01 28.468c0-1.672.01-3.345-.006-5.018 0-.334.074-.46.396-.45.666.025.594-.08.594.634 0 3.311 0 6.622.006 9.933 0 .34-.086.476-.399.421a.646.646 0 0 0-.194 0c-.31.045-.41-.083-.407-.431.017-1.696.008-3.392.008-5.089h.002ZM42 29.28v10.336c0 .295-.086.384-.384.384H22.391c-.295 0-.391-.105-.391-.409V19.146c0-.606.016-.621.614-.621h1.496a.529.529 0 0 0 .38-.148c1.654-1.432 3.31-2.862 4.968-4.29a452.13 452.13 0 0 1 2.236-1.92c.259-.223.372-.223.64 0 .575.492 1.147.988 1.72 1.477l4.744 4.098c.246.214.494.426.738.641a.484.484 0 0 0 .351.13h1.717c.322 0 .395.07.395.387L42 29.28Zm-.555 0v-9.952c0-.182-.053-.23-.229-.226-.486.01-.973 0-1.459 0a.716.716 0 0 1-.502-.189c-.404-.35-.812-.697-1.216-1.047a4304.604 4304.604 0 0 1-5.899-5.1.17.17 0 0 0-.267 0c-.26.235-.529.461-.794.69L26.394 17.5c-.54.47-1.085.94-1.633 1.41-.141.13-.327.2-.518.195-.493-.012-.985 0-1.477-.007-.165 0-.205.048-.205.21v19.907c0 .16.028.224.208.224H41.2c.246 0 .246 0 .246-.242V29.28Z"/><path d="M20.92 16.006a.952.952 0 0 1 .976.673c.016.1.107.17.206.157h1.873a.328.328 0 0 0 .23-.09c1.048-.925 2.1-1.852 3.155-2.78l3.814-3.346.537-.472c.223-.196.368-.198.59 0l3.213 2.838 4.26 3.756c.071.069.165.106.262.106h1.856c.128 0 .178-.054.22-.168a.94.94 0 0 1 1.018-.665.979.979 0 0 1 .858.828.994.994 0 0 1-.561 1.06.958.958 0 0 1-1.15-.277.373.373 0 0 0-.348-.17c-.66.01-1.323 0-1.983 0a.62.62 0 0 1-.436-.148 2732.26 2732.26 0 0 0-7.384-6.536.144.144 0 0 0-.232 0 5027.857 5027.857 0 0 1-4.249 3.744l-3.174 2.796a.612.612 0 0 1-.42.149h-1.984a.362.362 0 0 0-.336.159.93.93 0 0 1-1.11.307.986.986 0 0 1-.616-1.023c.04-.434.348-.794.766-.89.05-.007.1-.01.15-.008Zm22.517.995a.42.42 0 0 0-.415-.4.42.42 0 0 0-.415.4.42.42 0 0 0 .415.4.42.42 0 0 0 .415-.4Zm-22.456-.416a.411.411 0 0 0-.414.408.412.412 0 0 0 .4.423.429.429 0 0 0 .426-.41.416.416 0 0 0-.118-.3.399.399 0 0 0-.294-.12ZM20.949 40.015a.893.893 0 0 1 .847.475c.044.09.137.143.234.134h19.885a.29.29 0 0 0 .291-.158.961.961 0 0 1 1.057-.437c.42.109.721.49.736.936a.999.999 0 0 1-.67.985.969.969 0 0 1-1.203-.57.238.238 0 0 0-.262-.186H22.167a.276.276 0 0 0-.311.199.948.948 0 0 1-1.154.566.997.997 0 0 1-.7-1.015c.01-.477.443-.964.947-.93ZM43.433 41a.42.42 0 0 0-.42-.395.42.42 0 0 0-.408.409.442.442 0 0 0 .413.414.43.43 0 0 0 .415-.428Zm-22.466-.414a.388.388 0 0 0-.288.127.41.41 0 0 0-.107.302.418.418 0 0 0 .4.42.434.434 0 0 0 .293-.728.393.393 0 0 0-.298-.12ZM43.013 28.503V18.28c-.01-.147.19-.27.45-.278.121-.009.244.01.34.053.097.043.158.106.17.175a.52.52 0 0 1 .026.198v20.26c0 .164-.222.3-.511.312-.299 0-.488-.131-.488-.334V35.29c.01-2.262.014-4.524.013-6.787Z"/><path d="M22 28.511v10.186c.015.15-.179.282-.446.303-.27.005-.505-.103-.55-.251a.404.404 0 0 1 0-.126V18.43a.352.352 0 0 1 .068-.266c.07-.113.276-.18.487-.16.239.008.427.116.437.25a.676.676 0 0 1 0 .125v10.132H22ZM30.318 36.998h-3.99a.376.376 0 0 1-.392-.237.34.34 0 0 1 .1-.396.374.374 0 0 1 .27-.086c.22 0 .437-.01.657 0 .159.007.208-.05.207-.208v-7.538c0-.169-.05-.221-.217-.214-.291.013-.571.012-.857 0a.291.291 0 0 0-.3.166.905.905 0 0 1-.873.485.933.933 0 0 1-.83-.558.967.967 0 0 1 1.673-.958.315.315 0 0 0 .312.16c.29-.01.582-.012.873 0 .165 0 .22-.041.219-.212V20.917c0-.145-.048-.203-.198-.197-.23.01-.462 0-.693 0a.353.353 0 0 1-.073-.697c.077-.014.156-.02.234-.018 2.222 0 4.445-.011 6.667 0 .574 0 1.165-.035 1.72.128 1.264.364 2.084 1.162 2.33 2.468a6.242 6.242 0 0 1-.16 3.27 3.304 3.304 0 0 1-1.471 1.825c-.04.025-.085.048-.124.076-.04.027-.084.039-.081.088.003.05.062.05.099.063.397.132.763.341 1.079.615a4.189 4.189 0 0 1 1.211 1.948c.237.726.33 1.492.274 2.254-.1 1.256-.485 2.389-1.424 3.283a3.355 3.355 0 0 1-2.345.963c-1.214.013-2.429 0-3.64 0h-.257v.012Zm-.192-4.647v3.685c0 .167.06.204.213.204 1.281 0 2.562.003 3.841.008.232.003.462-.035.68-.11.954-.335 1.576-1.016 1.962-1.924.51-1.189.475-2.403.057-3.615-.291-.842-.743-1.54-1.637-1.865-.613-.223-1.23-.405-1.893-.393H32.11c-.521 0-1.043 0-1.566.016-.345 0-.418.083-.418.417l-.001 3.577Zm0-8.263v3.014c0 .352.095.462.447.452.602-.016 1.2.032 1.802.01a8.927 8.927 0 0 0 2.258-.353 2.116 2.116 0 0 0 1.339-1.122 4.82 4.82 0 0 0 .37-3.35c-.274-1.126-1.125-1.887-2.284-1.941-1.255-.061-2.512-.013-3.769-.025-.145 0-.166.071-.164.192.002 1.035.001 2.076.001 3.117v.006Zm-2.228 8.208v3.758c0 .178.04.248.23.238.303-.016.607 0 .91 0 .252 0 .254 0 .254-.248v-7.532c0-.132-.041-.181-.177-.178-.327.008-.656.011-.983 0-.179 0-.24.039-.238.23.008 1.235.004 2.48.004 3.726v.006Zm1.39-8.13v-3.233c0-.157-.039-.216-.203-.212-.334.01-.667.009-1 0-.146 0-.193.044-.191.187v6.518c0 .16.056.195.202.19.32-.008.644-.014.964 0 .192.01.233-.062.232-.24-.006-1.07-.003-2.14-.003-3.212v.001Zm-4.317 4.248a.414.414 0 0 0 .412-.416.436.436 0 0 0-.421-.412.422.422 0 0 0-.284.707.401.401 0 0 0 .293.12Z"/></g></svg>