<svg width="152" height="52" xmlns="http://www.w3.org/2000/svg"><g fill="#000" fill-rule="nonzero"><path d="M37.1 43c.38-.19.84-.3.75-.88-.09-.58-.61-.56-1-.66a1.78 1.78 0 0 1-1.49-2c.06-3.62 0-7.25 0-10.88a7.14 7.14 0 0 1 .49-2.85 4.07 4.07 0 0 1 4.29-2.54c1.65.22 2.59 1.28 2.8 3.37.263 4.081.317 8.173.16 12.26 0 1.24-.1 2.65-1.87 2.89-.33 0-.47.38-.42.74a.6.6 0 0 0 .64.55H78c.5 0 1.09 0 1.23-.6.14-.6-.44-.8-.93-1-1.53-.49-1.84-.91-1.84-2.52v-12A3.23 3.23 0 0 1 77.79 24a3.72 3.72 0 0 1 3.75-.49 2.51 2.51 0 0 1 1.76 2.27c.16 4.59.38 9.17.18 13.77a1.81 1.81 0 0 1-1.39 1.89c-.48.14-.93.31-.78.94.15.63.59.55 1 .55h9.71c.53 0 1.08-.14 1.14-.76.06-.62-.5-.73-1-.82-1.23-.24-1.6-1-1.6-2.2V26.63a2.88 2.88 0 0 1 .71-2 3.93 3.93 0 0 1 4.23-1.11 3.16 3.16 0 0 1 2.16 3.27v12.75a1.72 1.72 0 0 1-1.41 1.88c-.42.1-.9.26-.83.81.07.55.6.75 1.15.75h9.71c.44 0 .89 0 1-.6.11-.6-.24-.81-.7-.91-1.46-.29-1.71-1.28-1.72-2.6-.05-4.51.21-9-.15-13.55a5.31 5.31 0 0 0-4.5-5.19 9.85 9.85 0 0 0-9.08 2.48c-1.09 1-1.07 1-2-.17a5.53 5.53 0 0 0-1.89-1.71c-3.18-1.52-6.1-.9-8.9 1-.63.44-1.24 1.51-1.81 1.25-.74-.33-.22-1.46-.31-2.24-.07-.6-.28-.95-.87-.59A28.15 28.15 0 0 1 67 23.2c-.31.07-.59.17-.62.57-.03.4.25.62.6.74.18.06.38.08.56.13 1.74.4 1.82.48 1.82 2.25V38.7c0 2-.89 2.89-2.93 2.91-2.51 0-3.41-.72-3.41-2.88V21.42c0-1.56-.13-1.64-1.44-.92a26.75 26.75 0 0 1-6.74 2.58c-.51.12-1.29 0-1.33.8-.04.8.73.69 1.19.86.67.25 1.15.52 1.15 1.38v13.33a1.87 1.87 0 0 1-.57 1.48 3.49 3.49 0 0 1-3.64.45c-1.15-.38-1.37-1.38-1.37-2.44V26.19A5.87 5.87 0 0 0 45 20a10.68 10.68 0 0 0-8.52 2.65c-.25.22-.51.62-.88.41-.37-.21-.16-.64-.16-1v-11.7A2.71 2.71 0 0 0 35.25 9a1.33 1.33 0 0 0-.88.26 23.71 23.71 0 0 1-7.48 2.86c-.4.08-.95.13-1 .65-.05.52.48.76.94.85 1 .19 1.3.77 1.33 1.73.19 6.2 0 12.4.07 18.59v4.91c0 1.35-.35 2.37-1.78 2.76a.71.71 0 0 0-.45 1.11l1 .24V43h10.1ZM123.22 40.17c3-3 2.46-7.14-1.21-9.93-1.71-1.29-3.65-2.23-5.32-3.59a3.62 3.62 0 0 1-1.46-1.9 2.52 2.52 0 0 1 1.93-3.11c1.8-.46 2.77 0 3.25 1.67.74 2.51 1.54 3.08 3.75 2.85a2.11 2.11 0 0 0 1.93-2.6 1.16 1.16 0 0 0-.19-.44 5.74 5.74 0 0 0-3.31-2.66 12.48 12.48 0 0 0-9.61 1c-4.26 2.43-4.79 7.28-1.22 10.4a22.47 22.47 0 0 0 2.92 2.14 16.44 16.44 0 0 1 3.77 2.91 2.63 2.63 0 0 1 .4 3.24c-.87 1.47-2.34 1.53-3.81 1.42a2 2 0 0 1-1.84-1.81 7.17 7.17 0 0 0-.84-2.29 3.11 3.11 0 0 0-3.76-.89 2.41 2.41 0 0 0-1.16 3.07 4.05 4.05 0 0 0 2.08 2.4c.67.39 1.44.58 2.15.91h5.89a10.44 10.44 0 0 0 5.66-2.79Z"/><path d="M59.09 18.54a3.88 3.88 0 1 0 .394-7.75 3.88 3.88 0 0 0-.394 7.75Z"/></g></svg>