<svg width="152" height="52" xmlns="http://www.w3.org/2000/svg"><g fill="none" fill-rule="evenodd"><path d="M1 1h150v50H1z" stroke="#FFF"/><g fill="#000" fill-rule="nonzero"><path d="M119 33.24c-.16.285-.153.616-.246.919-.493 1.618-1.67 2.39-3.246 2.676-1.394.254-2.803.132-4.205.157-.46.009-.92 0-1.379 0-.675 0-.924-.255-.924-.935V15.783c.013-.475.255-.763.716-.753 1.824.025 3.653-.13 5.468.091 1.669.205 2.986.916 3.547 2.645.101.314.088.654.269.949V33.24Zm-6.849-7.263v8.078c0 .29.049.419.371.396.433-.03.866 0 1.299-.009 1.205-.023 1.833-.572 1.993-1.745.018-.176.024-.353.019-.53V20.171c0-.232.006-.463 0-.694-.065-1.239-.728-1.88-1.963-1.902-.447-.008-.894.019-1.339-.009-.3-.018-.379.065-.378.375.005 2.677 0 5.357-.002 8.036ZM33 29.539c.294-.364.679-.464 1.128-.433.37.026.746 0 1.118.006.615.014.872.273.875.893.006.824 0 1.648 0 2.473 0 .686.107 1.358.768 1.71.734.391 1.514.375 2.26 0 .459-.23.624-.683.702-1.162.034-.24.05-.481.047-.724 0-4.567 0-9.135.01-13.703 0-.38-.106-.462-.462-.456-1.346.017-1.416-.067-1.416-1.433 0-.298-.01-.595 0-.892.023-.55.285-.811.829-.815 1.078-.007 2.156 0 3.235 0 .672 0 .905.237.905.927v15.852c0 .701.023 1.41-.116 2.098-.32 1.586-1.27 2.536-2.812 2.88a8.882 8.882 0 0 1-4.408-.08c-1.385-.388-2.22-1.31-2.52-2.737-.024-.121 0-.276-.143-.349V29.54ZM79.01 26.493v-6.88a7.01 7.01 0 0 1 .193-1.789c.335-1.269 1.125-2.1 2.365-2.472a8.694 8.694 0 0 1 4.667-.064c1.617.41 2.538 1.588 2.692 3.275.09 1.003.072 2.007.065 3.01 0 .707-.269.953-.972.954h-1.23c-.668 0-.905-.235-.911-.92-.007-.71 0-1.42-.005-2.13a3.667 3.667 0 0 0-.083-.753c-.161-.694-.631-1.066-1.31-1.159a2.918 2.918 0 0 0-1.144.045c-.665.175-1.079.615-1.167 1.302a7.828 7.828 0 0 0-.068.96c-.004 4.1-.004 8.2 0 12.3 0 .321.024.642.073.96.14.901.913 1.428 1.95 1.346 1.22-.097 1.745-.666 1.75-1.917 0-1.339-.01-2.68.011-4.02 0-.33-.098-.416-.402-.388a6.32 6.32 0 0 1-.794 0c-.513-.016-.779-.287-.788-.8 0-.322-.009-.644 0-.967.014-.45.278-.734.721-.738 1.206-.011 2.412-.009 3.618 0 .393 0 .65.203.712.611.027.158.041.318.044.478 0 1.862.007 3.725 0 5.589a8.086 8.086 0 0 1-.17 1.713c-.328 1.468-1.249 2.356-2.672 2.7a8.992 8.992 0 0 1-4.323-.006c-1.707-.421-2.7-1.681-2.78-3.504-.108-2.396-.009-4.81-.043-6.736ZM63 25.986V19.55c0-.74.078-1.47.339-2.167.425-1.13 1.275-1.791 2.403-2.088a8.91 8.91 0 0 1 4.296-.06c1.85.421 2.837 1.654 2.926 3.591.045.968.028 1.936.02 2.895 0 .55-.27.804-.815.811-.503.007-1.008.008-1.513 0-.441-.007-.697-.215-.752-.663-.1-.8-.033-1.606-.04-2.41 0-.685-.097-1.344-.77-1.681a2.314 2.314 0 0 0-2.254.043c-.568.323-.71.91-.715 1.525-.01 1.461 0 2.923 0 4.384v8.89c0 .963.38 1.55 1.137 1.765.5.145 1.03.142 1.529-.007.648-.194 1.047-.696 1.063-1.44.024-1.513.006-3.03.017-4.545 0-.215-.092-.235-.263-.229-.305.01-.61.01-.916 0-.486-.016-.751-.255-.78-.731a8.801 8.801 0 0 1 0-1.085c.03-.43.295-.684.728-.687 1.196-.01 2.391-.01 3.586 0 .476 0 .754.265.755.743.006 2.266.052 4.534-.025 6.797-.077 2.218-1.427 3.51-3.706 3.732-1.222.12-2.439.107-3.626-.244-1.527-.458-2.327-1.536-2.545-3.103-.09-.645-.077-1.283-.077-1.926L63 25.986ZM102.525 36.994h-.436c-.855 0-1.043-.196-1.146-1.084-.124-1.066-.277-2.127-.414-3.191-.025-.198-.078-.303-.318-.3-1.125.016-2.25.013-3.376 0-.24 0-.305.078-.336.32-.145 1.156-.318 2.312-.478 3.467-.076.536-.352.78-.883.786h-1.31c-.577-.009-.883-.296-.82-.891.106-1.011.274-2.016.424-3.022a25615.718 25615.718 0 0 1 2.24-14.931c.114-.765.23-1.529.339-2.293.093-.655.298-.853.928-.855h3.098c.635 0 .888.218.986.863.196 1.287.378 2.577.569 3.866a13384.883 13384.883 0 0 1 2.38 16.063c.117.797-.107 1.273-1.055 1.2-.126-.007-.26.002-.392.002Zm-4.074-7.114c.45 0 .9-.014 1.348 0 .262.012.326-.05.285-.328-.253-1.747-.506-3.493-.714-5.24-.264-2.224-.485-4.452-.724-6.679-.012-.102.023-.256-.116-.264-.183-.01-.13.18-.143.279-.078.604-.14 1.213-.207 1.82-.17 1.528-.317 3.05-.511 4.57a269.496 269.496 0 0 1-.782 5.56c-.04.273.046.29.254.284.437-.01.873-.002 1.31-.002ZM53.503 15.002h1.627s.79.224.87.746c.296 1.957.581 3.916.874 5.872.357 2.414.715 4.828 1.075 7.24.33 2.226.626 4.457.997 6.676.182 1.09-.059 1.546-1.258 1.452-.263-.02-.53 0-.793 0-.581-.005-.84-.25-.916-.833-.151-1.156-.318-2.31-.463-3.467-.026-.218-.092-.269-.29-.268-1.137.008-2.274.008-3.41 0-.199 0-.268.058-.295.263-.161 1.182-.332 2.363-.514 3.541-.086.559-.333.764-.89.764-.423.004-.846.004-1.27 0-.599-.005-.914-.347-.835-.96.138-1.062.305-2.12.463-3.178a9113.725 9113.725 0 0 1 1.914-12.78c.217-1.446.429-2.893.654-4.339.085-.538.304-.72.83-.728.542-.006 1.084 0 1.63 0Zm-.035 14.874c.461 0 .925-.011 1.387 0 .211.006.276-.06.244-.277-.148-1.033-.277-2.074-.43-3.1-.318-2.118-.53-4.25-.753-6.38-.09-.835-.17-1.672-.263-2.509-.01-.094.016-.253-.14-.243-.157.01-.121.15-.132.254l-.082.728c-.211 1.846-.391 3.696-.624 5.537-.24 1.896-.522 3.785-.796 5.674-.04.265.035.328.28.314.435-.013.873.002 1.309.002Z"/></g></g></svg>