<?xml version="1.0" encoding="UTF-8"?>
<!-- Generator: Adobe Illustrator 25.3.0, SVG Export Plug-In . SVG Version: 6.00 Build 0)  -->
<svg version="1.1" id="Layer_1" xmlns="http://www.w3.org/2000/svg" xmlns:xlink="http://www.w3.org/1999/xlink" x="0px" y="0px" viewBox="0 0 54 66" style="enable-background:new 0 0 54 66;" xml:space="preserve">
<style type="text/css">
	.st0{fill:#1F0E0C;}
	.st1{fill:#FFAC00;}
</style>
<g id="Layer_1_1_">
</g>
<g id="Layer_2_1_">
	<g>
		<path class="st0" d="M27,63.1c0.5-0.3,14.5-6.3,19-10c4.6-3.8,7-9.1,7-15.6V7.2l-0.4-0.1c-11.2-6.1-25-5.7-25.7-5.7    c-0.5,0-14.4-0.4-25.6,5.7L1,7.2v30.4c0,6.5,2.4,11.8,7,15.6C12.5,56.9,26.5,62.9,27,63.1"/>
		<path class="st1" d="M27,63.7c0,0-14.8-6.5-19.4-10.1c-4.8-4-7.1-9.6-7.1-15.9V6.3C12.2,0,27,0.5,27,0.5S41.8,0,53.5,6.3v31.3    c0,6.3-2.3,11.8-7.1,15.9C41.8,57.3,27,63.7,27,63.7 M2.6,37.8c0,5.9,2.2,10.8,6.3,14.1c3.8,3.1,14.9,8.1,18,9.4    c3.1-1.3,14.4-6.5,18-9.4c4.2-3.4,6.3-8.3,6.3-14.1V6.8C35.7,5.4,17.2,6.2,2.6,19.6L2.6,37.8L2.6,37.8z"/>
		<path class="st1" d="M41.9,33.3c2,1.2,2.8,2,3,3.5c0,1.6-1.1,2.6-2.8,2.6c-1.5,0-3.2-0.8-4.4-1.9v4.3c1.5,0.8,3.2,1.5,5.1,1.5    c4.6,0,6.7-3.2,6.7-6.2c0.1-2.7-0.7-4.8-4.6-7.1c-1.7-1.1-3.1-1.7-3.1-3.4s1.5-2.3,2.7-2.3c1.6,0,3.2,0.9,4.2,1.9v-4    c-0.8-0.7-2.6-1.6-5.1-1.5c-3.1,0.1-6.3,2.3-6.3,6.1C37.4,29.3,38.2,31.2,41.9,33.3 M26.1,43c0.4,0.1,1.1,0.3,2.2,0.3    c5.2,0,8.2-4.7,8.2-11.4c0-6.9-3.1-11-8.6-11c-2.6,0-4.6,0.5-6.3,1.6v30.4h4.6L26.1,43L26.1,43z M26.1,24.7    c0.4-0.1,1.1-0.4,1.6-0.4c2.7,0,3.8,2.2,3.8,7.4c0,5.1-1.3,7.5-4,7.5c-0.7,0-1.2-0.1-1.5-0.3V24.7L26.1,24.7L26.1,24.7z     M11.9,43.3c2.8,0,5.2-0.7,7-1.9V21.1h-4.7v17.6c-0.5,0.4-1.2,0.5-2.2,0.5c-2.2,0-2.4-2-2.4-3.2V21.1H4.9v14.7    C4.9,40.7,7.4,43.3,11.9,43.3 M43.3,61.5v3.1h0.5v-1.2h0.1l0.8,1.2h0.7c0,0-0.8-1.2-0.9-1.3c0.4-0.1,0.7-0.4,0.7-0.8    c0-0.4-0.3-0.9-1.1-0.9H43.3L43.3,61.5z M44.1,61.9c0.4,0,0.5,0.3,0.5,0.4c0,0.3-0.1,0.5-0.7,0.5h-0.1v-0.9L44.1,61.9L44.1,61.9z"/>
		<path class="st1" d="M46.2,62.9c0,1.1-0.9,2-2,2s-2-0.9-2-2c0-1.1,0.9-2,2-2C45.4,60.9,46.2,61.9,46.2,62.9 M44.2,60.4    c-1.3,0-2.6,1.1-2.6,2.6c0,1.3,1.1,2.6,2.6,2.6c1.3,0,2.6-1.1,2.6-2.6C46.8,61.6,45.6,60.4,44.2,60.4"/>
	</g>
</g>
</svg>