<svg width="152" height="52" xmlns="http://www.w3.org/2000/svg" xmlns:xlink="http://www.w3.org/1999/xlink"><defs><path id="a" d="M0 .21h14.388v21.926H0z"/></defs><g fill="none" fill-rule="evenodd"><g transform="translate(19 14.79)"><mask id="b" fill="#fff"><use xlink:href="#a"/></mask><path d="M14.388 18.574c-.627-1.93-.88-4.437-1.195-6.97-.428-3.404-1.063-6.86-3.085-9.056C7.923.175 3.23-.53 0 1.074c4.16 0 4.546 5.207 5.206 10.53.428 3.403 1.064 6.86 3.086 9.058.555.602 1.275 1.097 2.089 1.474 2.176-.002 3.319-1.433 4.007-3.56" fill="#000" mask="url(#b)"/></g><path d="M40.397 15.6c-1.077.396-2.03.981-2.727 1.74-2.022 2.194-2.66 5.651-3.088 9.054-.66 5.324-1.047 10.531-5.206 10.531 3.232 1.603 7.923.9 10.11-1.473 2.02-2.199 2.658-5.656 3.086-9.058.316-2.562.572-5.096 1.215-7.036-.691-2.092-1.833-3.494-3.99-3.494.195-.097.395-.184.6-.265Z" fill="#8C8C8C"/><path d="M52.991 26.394c-.428-3.403-1.065-6.86-3.085-9.056-2.186-2.373-6.879-3.078-10.11-1.473 4.16 0 4.546 5.206 5.207 10.53.427 3.402 1.066 6.86 3.09 9.058.553.602 1.271 1.096 2.085 1.473 2.177-.002 3.32-1.43 4.008-3.556-.627-1.933-.88-4.44-1.195-6.975Z" fill="#000"/><path d="M55.38 26.394c-.66 5.324-1.046 10.531-5.207 10.531 3.23 1.603 7.923.9 10.11-1.473 2.022-2.199 2.658-5.656 3.084-9.058.858-6.925-1.053-8.72-2.723-9.149-3.625-.928-4.804 5.482-5.263 9.15" fill="#8C8C8C"/><path d="M85.192 26.394c-.428-3.403-1.063-6.86-3.084-9.056-2.187-2.373-6.88-3.078-10.11-1.473 4.16 0 4.547 5.206 5.206 10.53.43 3.402 1.064 6.86 3.088 9.058 2.184 2.372 6.878 3.076 10.107 1.473-4.16 0-4.547-5.207-5.207-10.53" fill="#000"/><path d="M96.91 33.367c-.626-1.932-.88-4.438-1.195-6.973-.427-3.402-1.063-6.86-3.084-9.055-2.187-2.373-6.88-3.078-10.112-1.473 4.162 0 4.547 5.206 5.21 10.529.427 3.403 1.061 6.86 3.084 9.058.556.602 1.275 1.097 2.09 1.474 2.176-.002 3.317-1.432 4.007-3.558" fill="#8C8C8C"/><path d="M103.367 17.245c-3.625-.928-4.8 5.482-5.26 9.15-.663 5.323-1.05 10.53-5.209 10.53 3.23 1.603 7.925.9 10.107-1.473 2.023-2.199 2.66-5.656 3.088-9.058.858-6.925-1.054-8.72-2.726-9.149" fill="#000"/><path d="M118.61 33.369c-.628-1.933-.883-4.44-1.197-6.975-.427-3.402-1.066-6.86-3.085-9.055-2.186-2.373-6.878-3.078-10.108-1.473 4.16 0 4.546 5.206 5.206 10.529.43 3.403 1.065 6.86 3.087 9.058.556.603 1.274 1.097 2.088 1.474 2.177-.002 3.318-1.432 4.008-3.557" fill="#8C8C8C"/><path d="M119.803 26.394c.429-3.403 1.062-6.86 3.086-9.056 2.185-2.373 6.878-3.078 10.11-1.473-4.16 0-4.548 5.206-5.207 10.53-.427 3.402-1.065 6.86-3.087 9.058-2.187 2.372-6.88 3.076-10.11 1.473 4.16 0 4.548-5.207 5.208-10.53" fill="#000"/><path d="M71.585 17.339c-2.186-2.373-6.88-3.078-10.112-1.473 4.16 0 4.546 5.206 5.208 10.53.428 3.402 1.065 6.859 3.088 9.057 2.185 2.372 6.879 3.076 10.107 1.474-4.16 0-4.545-5.207-5.206-10.531-.428-3.403-1.064-6.86-3.085-9.056v-.001Z" fill="#8C8C8C"/><path stroke="#FFF" d="M1 1h150v50H1z"/></g></svg>